<svg xmlns="http://www.w3.org/2000/svg" version="1.1" xmlns:xlink="http://www.w3.org/1999/xlink" width="2000" height="1500" viewBox="0 0 2000 1500"><rect width="2000" height="1500" x="0" y="0" id="background" stroke="transparent" fill="#692729"></rect><svg xml:space="preserve" width="1500" height="1125" data-version="2" data-id="lg_fhb33VyJe98jRpLoQj" viewBox="0 0 481 330" x="250" y="187.5"><rect width="100%" height="100%" fill="transparent"></rect><path fill="#f2cebe" d="M303.365 327.115q-29.21 0-57.17-3.22-27.97-3.22-54.21-9.65l27.72-81.68q18.81 4.95 40.59 8.17 21.78 3.22 41.09 3.22 15.84 0 27.72-.74 11.88-.75 22.77-2.23l3.96-24.75-41.09-3.96q-48.51-4.95-67.32-22.03-18.81-17.08-18.81-46.78 0-13.36 2.97-29.7 7.92-42.07 23.02-66.33 15.1-24.25 43.31-34.4 28.22-10.15 74.75-10.15 27.22 0 53.46 2.97 26.23 2.97 50.49 9.41l-25.74 79.2q-19.31-3.47-36.63-5.45-17.33-1.98-38.61-1.98-11.39 0-19.31.5-7.92.49-19.3 1.98l-3.96 24.25 33.16 3.47q35.64 3.46 55.94 13.61 20.29 10.15 28.71 25.25 8.41 15.09 8.41 34.89 0 5.94-.74 12.13t-1.73 13.12q-6.93 40.09-22.28 62.86-15.34 22.77-36.13 32.92-20.79 10.15-45.29 12.62-24.51 2.48-49.75 2.48m-56.93-296.51-191.07-20.29h212.85q-6.43 3.96-11.63 9.16-5.2 5.19-10.15 11.13m-15.34 27.23-7.43 21.78-205.42-21.78zm-16.83 69.79-209.88-22.27h213.34q-.49 1.48-.74 2.97-.25 1.48-.25 2.97-.49 3.46-1.23 7.42-.75 3.96-1.24 8.91m3.96 47.52-209.39-22.27h205.43q.49 6.43 1.24 11.63.74 5.2 2.72 10.64m65.34 47.52-261.86-22.27h213.35q16.33 15.84 48.51 22.27m-85.14 25.25-7.43 21.78-177.7-21.78zm-15.84 48.01-7.43 21.78-170.28-21.78z"></path></svg></svg>